<svg width="49" height="27" viewBox="0 0 49 27" fill="none" xmlns="http://www.w3.org/2000/svg">
<path d="M0.608 26L6.112 0.079998H9.6L15.136 26H11.712L10.528 19.472H5.248L4 26H0.608ZM5.728 16.88H10.048L7.872 5.2L5.728 16.88ZM17.638 26V0.079998H21.062V26H17.638ZM29.5905 26.256C28.1398 26.256 27.0198 25.9787 26.2305 25.424C25.4412 24.848 24.8865 24.016 24.5665 22.928C24.2678 21.8187 24.1185 20.464 24.1185 18.864V14.64C24.1185 12.9973 24.2785 11.632 24.5985 10.544C24.9185 9.456 25.4732 8.63467 26.2625 8.08C27.0732 7.52533 28.1825 7.248 29.5905 7.248C31.1478 7.248 32.2892 7.568 33.0145 8.208C33.7612 8.848 34.2518 9.776 34.4865 10.992C34.7212 12.1867 34.8385 13.6267 34.8385 15.312V16.816H27.5425V20.528C27.5425 21.2747 27.6065 21.8827 27.7345 22.352C27.8838 22.8213 28.1078 23.1733 28.4065 23.408C28.7265 23.6213 29.1318 23.728 29.6225 23.728C30.1345 23.728 30.5185 23.6107 30.7745 23.376C31.0518 23.12 31.2332 22.768 31.3185 22.32C31.4252 21.8507 31.4785 21.3067 31.4785 20.688V19.568H34.8065V20.272C34.8065 22.128 34.4118 23.5893 33.6225 24.656C32.8332 25.7227 31.4892 26.256 29.5905 26.256ZM27.5425 14.96H31.4785V13.296C31.4785 12.528 31.4358 11.888 31.3505 11.376C31.2652 10.8427 31.0838 10.448 30.8065 10.192C30.5505 9.91467 30.1345 9.776 29.5585 9.776C29.0038 9.776 28.5772 9.904 28.2785 10.16C28.0012 10.416 27.8092 10.8533 27.7025 11.472C27.5958 12.0693 27.5425 12.9013 27.5425 13.968V14.96ZM36.3393 26L40.4993 16.272L36.4353 7.504H39.6993L42.4193 13.36L44.8193 7.504H48.1793L43.9553 16.688L48.2433 26H44.9793L42.0673 19.728L39.5713 26H36.3393Z" fill="white"/>
</svg>
